<!--?xml version="1.0" standalone="no"?-->
              <svg id="sw-js-blob-svg" viewBox="0 0 100 100" xmlns="http://www.w3.org/2000/svg" version="1.1">
                    <defs> 
                        <linearGradient id="sw-gradient" x1="0" x2="1" y1="1" y2="0">
                            <stop id="stop1" stop-color="rgba(14, 153, 212, 1)" offset="0%"></stop>
                            <stop id="stop2" stop-color="rgba(26, 127, 209, 1)" offset="100%"></stop>
                        </linearGradient>
                    </defs>
                <path fill="none" d="M11.3,-14.8C18.2,-15.7,29.7,-19.7,31.5,-17.8C33.2,-15.9,25.2,-7.9,23.8,-0.8C22.4,6.3,27.5,12.6,27.6,17.7C27.7,22.9,22.8,26.9,17.4,30.2C11.9,33.5,6,36,2.1,32.3C-1.7,28.6,-3.4,18.7,-7.5,14.7C-11.6,10.6,-18.1,12.4,-23.2,10.9C-28.4,9.5,-32.2,4.7,-31.1,0.6C-30,-3.5,-24,-6.9,-21.3,-12.6C-18.5,-18.2,-19,-26,-16,-27.4C-13,-28.8,-6.5,-23.8,-2.1,-20.1C2.2,-16.3,4.5,-14,11.3,-14.8Z" width="100%" height="100%" transform="translate(50 50)" stroke-width="1" style="transition: all 0.3s ease 0s;" stroke="url(#sw-gradient)"></path>
              </svg>